<svg xmlns="http://www.w3.org/2000/svg" xmlns:xlink="http://www.w3.org/1999/xlink" version="1.1" x="0px" y="0px" viewBox="0 0 100 125" style="enable-background:new 0 0 100 100;" xml:space="preserve"><style type="text/css">
	.st0{display:none;}
	.st1{display:inline;}
</style><g><path d="M31.4,69.7c0,10.3,8.3,18.6,18.6,18.6h0c10.3,0,18.6-8.3,18.6-18.6V53.2H31.4V69.7z"/><path d="M51.5,30.1C51.3,21,45.4,20,40.7,19.3c-4.5-0.8-7.8-1.3-7.8-7.6h-3.1c0,8.9,5.8,9.9,10.4,10.6c4.6,0.8,8,1.3,8.2,7.8   c-9.5,0.8-17,8.8-17,18.5v1.5h37.3v-1.5C68.6,38.9,61.1,30.9,51.5,30.1z M51.6,46.2h-3.1V34.5h3.1V46.2z"/></g><text x="0" y="115" fill="#000000" font-size="5px" font-weight="bold" font-family="'Helvetica Neue', Helvetica, Arial-Unicode, Arial, Sans-serif">Created by matias porta lezcano</text><text x="0" y="120" fill="#000000" font-size="5px" font-weight="bold" font-family="'Helvetica Neue', Helvetica, Arial-Unicode, Arial, Sans-serif">from the Noun Project</text></svg>